<?xml version="1.0" encoding="utf-8"?>
<!-- Generator: Adobe Illustrator 26.0.1, SVG Export Plug-In . SVG Version: 6.00 Build 0)  -->
<svg version="1.1" id="Layer_1" xmlns="http://www.w3.org/2000/svg" xmlns:xlink="http://www.w3.org/1999/xlink" x="0px" y="0px"
	 viewBox="0 0 384.3 62.5" style="enable-background:new 0 0 384.3 62.5;" xml:space="preserve">
<style type="text/css">
	.st0{fill:#414141;}
</style>
<g>
	<g>
		<g>
			<path class="st0" d="M125.7,46.7c3.6-0.1,4.3-0.6,4.3-2V21.9c0-1.5-0.7-1.9-4.3-2v-1.8h13.9c9.5,0,12.7,3.8,12.7,8.6
				c0,4.4-3.4,9-12.9,9h-2.9v9c0,1.6,0.5,1.9,4.6,2v1.8h-15.3V46.7z M139.1,33.8c5.1,0,6.4-2.3,6.4-6.9c0-4-1.5-6.7-6.3-6.7h-2.8
				v13.7H139.1z"/>
		</g>
		<g>
			<path class="st0" d="M174,44.8c0,1.6,1,1.9,4.2,2v1.8h-14.8v-1.8c3.6-0.1,4.3-0.6,4.3-2V21.9c0-1.5-0.7-1.9-4.3-2v-1.8h14.5
				c9.2,0,11.9,3.5,11.9,7.4c0,3.7-2,6.4-8.4,7.6v0.1c6,0.3,7.2,2.6,7.7,6l0.6,3.8c0.4,2.9,1.2,3.4,4.4,3.6v1.8
				c-1.1,0.1-2.2,0.1-3.1,0.1c-6.5,0-7.6-1.6-7.9-5.5l-0.3-3.5c-0.3-4.5-1.7-5.5-6.4-5.5h-2.2L174,44.8L174,44.8z M176.7,32.4
				c5.3,0,6.4-2,6.4-6.4c0-3.9-1.7-5.8-6.7-5.8H174v12.3L176.7,32.4L176.7,32.4z"/>
		</g>
		<g>
			<path class="st0" d="M203.8,33.4c0-9.8,6.2-16,14.9-16c9,0,15,6,15,15.8s-6.3,16-15,16C209.9,49.3,203.8,43.2,203.8,33.4z
				 M226.8,33.3c0-9.9-3-14-8.2-14s-7.8,4.1-7.8,14s3,14,8.2,14C224.2,47.3,226.8,43.3,226.8,33.3z"/>
		</g>
		<g>
			<path class="st0" d="M245.8,33.6c0-9.3,6.9-16.2,15.9-16.2c2.9,0,5.8,0.9,7.6,2l1.4-2h1.9v10.9h-2c-1.9-5.6-4.9-9-8.9-9
				c-4.7,0-8.9,4.6-8.9,13.5c0,9.1,5,13.5,9.9,13.5c4.3,0,7.3-2.4,9.5-6.8l1.8,0.8c-2.1,4.9-6.2,8.9-12.9,8.9
				C251.3,49.3,245.8,42.7,245.8,33.6z"/>
		</g>
		<g>
			<path class="st0" d="M285.4,46.7c3.6-0.1,4.3-0.6,4.3-2V21.9c0-1.5-0.7-1.9-4.3-2v-1.8h25.8l0.3,9.7h-2c-1.7-5.2-3-7.8-8.4-7.8
				h-5V32h1.7c3.2,0,4.3-0.4,5.8-4.9h1.7v11.7h-1.7c-1.4-4.5-2.5-4.9-5.8-4.9h-1.7v12.5h4.8c6.4,0,8.1-3,9.9-8.6h2l-0.4,10.6h-27
				L285.4,46.7L285.4,46.7z"/>
		</g>
		<g>
			<path class="st0" d="M325.3,39h2c2.3,5.2,5.5,8.2,9.3,8.2c4,0,5.7-2.7,5.7-5.2c0-3.2-2-4.4-7.3-6.1c-4.7-1.5-9.3-3.3-9.3-9
				c0-5.8,4.4-9.6,10.5-9.6c2.4,0,4.7,0.6,6,1.3l1.4-1.5h1.7v9.2h-2c-1.9-4.3-4.5-7-7.8-7c-2.8,0-4.9,1.9-4.9,4.9
				c0,3.1,2.2,4.1,7.3,5.8c4.2,1.4,8.8,3.2,8.8,8.9c0,5.1-3,10.3-10.8,10.3c-2.4,0-5.4-0.5-7.1-1.4l-1.8,1.6h-1.8L325.3,39L325.3,39
				z"/>
		</g>
		<g>
			<path class="st0" d="M359,39h2c2.3,5.2,5.5,8.2,9.3,8.2c4,0,5.7-2.7,5.7-5.2c0-3.2-2-4.4-7.3-6.1c-4.7-1.5-9.3-3.3-9.3-9
				c0-5.8,4.4-9.6,10.5-9.6c2.4,0,4.7,0.6,6,1.3l1.4-1.5h1.7v9.2h-2c-1.9-4.3-4.5-7-7.8-7c-2.8,0-4.9,1.9-4.9,4.9
				c0,3.1,2.2,4.1,7.3,5.8c4.2,1.4,8.8,3.2,8.8,8.9c0,5.1-3,10.3-10.8,10.3c-2.4,0-5.4-0.5-7.1-1.4l-1.8,1.6h-1.8L359,39L359,39z"/>
		</g>
	</g>
	<g>
		<g>
			<g>
				<path class="st0" d="M4,46.8c4.1-0.6,4.7-2,4.7-6.4V23.3c0-1.7-0.9-3.2-4.7-3.3v-1.8h12.5l7.8,21.9h0.4l7.4-21.9h12.2V20
					c-3.6,0.1-4.3,0.6-4.3,2v22.8c0,1.5,0.7,1.9,4.3,2v1.8H29.8v-1.8c2.9-0.1,3.8-0.5,3.8-2V22.1h-0.3L24,48.5h-2.7l-9.9-26.3h-0.5
					v18.2c0,4.3,0.4,5.8,4.6,6.4v1.7H4V46.8z"/>
			</g>
		</g>
	</g>
	<g>
		<g>
			<path class="st0" d="M53.4,46.7c3.6-0.1,4.3-0.6,4.3-2V21.9c0-1.5-0.7-1.9-4.3-2v-1.8h13.9c11.3,0,16.7,5.9,16.7,14.5
				c0,8.4-4.5,15.7-16.1,15.7H53.4V46.7z M67,46.6c7.7,0,10-3.9,10-13.4c0-9.6-3.5-13.1-10.4-13.1H64v26.4H67z"/>
		</g>
	</g>
	<g>
		
			<rect x="71.4" y="30.6" transform="matrix(0.4866 -0.8736 0.8736 0.4866 27.1046 108.6231)" class="st0" width="69.1" height="1.4"/>
	</g>
</g>
</svg>
